<?xml version="1.0" encoding="utf-8"?>
<!-- Generator: Adobe Illustrator 22.0.1, SVG Export Plug-In . SVG Version: 6.00 Build 0)  -->
<svg version="1.1" id="Capa_1" xmlns="http://www.w3.org/2000/svg" xmlns:xlink="http://www.w3.org/1999/xlink" x="0px" y="0px"
	 viewBox="0 0 512 512" style="enable-background:new 0 0 512 512;" xml:space="preserve">
<style type="text/css">
	.st0{fill:#4BC0C0;}
	.st1{fill:#FFC107;}
	.st2{fill:#FF6384;}
	.st3{display:none;}
</style>
<path class="st0" d="M272,240h239.2C503.2,111.4,400.6,8.8,272,0.8V240z"/>
<path class="st1" d="M262.6,272L86.8,447.8c105.7,93.5,267.1,83.7,360.6-22c37.8-42.7,60.2-96.9,63.7-153.8H262.6z"/>
<path class="st2" d="M240,249.4V0.8C99.2,9.4-8.1,130.5,0.5,271.3c3.5,57,25.9,111.1,63.7,153.8L240,249.4z"/>
<path d="M256,512C114.6,512,0,397.4,0,256S114.6,0,256,0s256,114.6,256,256C511.8,397.3,397.3,511.8,256,512z M256,32
	C132.3,32,32,132.3,32,256s100.3,224,224,224s224-100.3,224-224C479.9,132.3,379.7,32.1,256,32z"/>
<path class="st3" d="M86.4,441.6c-8.8,0-16-7.2-16-16c0-4.2,1.7-8.3,4.7-11.3L240,249.4V16c0-8.8,7.2-16,16-16s16,7.2,16,16v240
	c0,4.2-1.7,8.3-4.7,11.3L97.7,436.9C94.7,439.9,90.6,441.6,86.4,441.6z"/>
<path class="st3" d="M496,272H256c-8.8,0-16-7.2-16-16s7.2-16,16-16h240c8.8,0,16,7.2,16,16S504.8,272,496,272z"/>
<g>
	<g id="XMLID_1_">
		<g>
			<path d="M256,0c141.4,0,256,114.6,256,256S397.4,512,256,512S0,397.4,0,256S114.6,0,256,0z M480,256c0-123.5-100.5-224-224-224
				S32,132.5,32,256s100.5,224,224,224S480,379.5,480,256z"/>
			<path d="M335.6,265.8c6.1,10.3,9.2,22.4,9.2,36.1c0,21.1-6.3,38.8-18.9,52.9c-12.6,14.1-30.8,22.4-54.6,24.9V416h-30.3v-36
				c-39.7-4.1-64.2-27.1-73.7-69.1l46.9-12.2c4.3,26.4,18.7,39.6,43.1,39.6c11.4,0,19.8-2.8,25.2-8.5s8.1-12.5,8.1-20.5
				c0-8.3-2.7-14.6-8.1-18.8c-5.4-4.3-17.3-9.7-35.9-16.3c-16.6-5.8-29.7-11.5-39.1-17.2c-9.4-5.6-17-13.5-22.8-23.7
				c-5.9-10.2-8.8-22.1-8.8-35.6c0-17.7,5.3-33.7,15.7-47.9c10.4-14.2,26.9-22.8,49.3-26V96h30.3v28c33.9,4.1,55.8,23.2,65.8,57.5
				l-41.8,17.1c-8.1-23.5-20.7-35.3-37.8-35.3c-8.6,0-15.4,2.6-20.6,7.9c-5.2,5.3-7.8,11.6-7.8,19.1c0,7.6,2.5,13.5,7.5,17.6
				c5,4.1,15.7,9.1,32.1,15.1c18,6.6,32.1,12.8,42.3,18.6C321.3,247.5,329.4,255.6,335.6,265.8z"/>
		</g>
		<g>
		</g>
	</g>
</g>
</svg>
